<svg
        xmlns="http://www.w3.org/2000/svg"
        xmlns:xlink="http://www.w3.org/1999/xlink"
        width="13px" height="13px">
    <path fill-rule="evenodd" fill="rgb(70, 89, 147)"
          d="M8.372,6.000 L12.687,10.314 C13.075,10.703 13.075,11.333 12.687,11.722 C12.298,12.111 11.667,12.111 11.279,11.722 L6.964,7.408 L2.654,11.718 C2.265,12.107 1.635,12.107 1.246,11.718 C0.857,11.329 0.857,10.699 1.246,10.310 L5.556,6.000 L1.258,1.701 C0.869,1.313 0.869,0.682 1.258,0.293 C1.646,-0.095 2.277,-0.095 2.666,0.293 L6.964,4.592 L11.267,0.289 C11.656,-0.100 12.286,-0.100 12.675,0.289 C13.064,0.678 13.064,1.308 12.675,1.697 L8.372,6.000 Z"/>
</svg>