<svg
        xmlns="http://www.w3.org/2000/svg"
        xmlns:xlink="http://www.w3.org/1999/xlink"
        width="13px" height="17px">
    <path fill-rule="evenodd" fill="rgb(70, 89, 147)"
          d="M11.926,16.022 L1.936,16.022 C1.386,16.022 0.940,15.577 0.940,15.027 L0.940,15.027 C0.940,14.477 1.386,14.031 1.936,14.031 L11.926,14.031 C12.476,14.031 12.922,14.477 12.922,15.027 L12.922,15.027 C12.922,15.577 12.476,16.022 11.926,16.022 ZM7.703,11.696 C7.688,11.710 7.669,11.715 7.653,11.729 C7.473,11.914 7.222,12.031 6.942,12.031 L6.933,12.031 C6.645,12.031 6.390,11.905 6.209,11.709 C6.199,11.701 6.187,11.698 6.179,11.689 L2.286,7.797 C1.897,7.408 1.897,6.777 2.286,6.389 C2.675,6.000 3.305,6.000 3.694,6.389 L5.937,8.632 L5.937,1.058 C5.937,0.508 6.383,0.062 6.933,0.062 L6.942,0.062 C7.492,0.062 7.937,0.508 7.937,1.058 L7.937,8.645 L10.188,6.395 C10.576,6.006 11.207,6.006 11.596,6.395 C11.984,6.784 11.984,7.414 11.596,7.803 L7.703,11.696 Z"/>
</svg>