<svg
        xmlns="http://www.w3.org/2000/svg"
        xmlns:xlink="http://www.w3.org/1999/xlink"
        width="8px" height="15px">
    <path fill-rule="evenodd"  fill="rgb(70, 89, 147)"
          d="M5.744,0.291 C4.774,0.291 3.998,0.579 3.414,1.153 C2.831,1.728 2.540,2.537 2.540,3.580 L2.540,5.413 L0.395,5.413 L0.395,7.903 L2.540,7.903 L2.540,14.286 L5.113,14.286 L5.113,7.903 L7.250,7.903 L7.578,5.413 L5.113,5.413 L5.113,3.824 C5.113,3.420 5.197,3.117 5.366,2.915 C5.534,2.713 5.859,2.613 6.341,2.613 L7.662,2.613 L7.662,0.392 C7.208,0.325 6.568,0.291 5.744,0.291 L5.744,0.291 Z"/>
</svg>