<svg
        xmlns="http://www.w3.org/2000/svg"
        xmlns:xlink="http://www.w3.org/1999/xlink"
        width="21px" height="20px">
    <path fill-rule="evenodd"  stroke="rgb(70, 89, 147)" stroke-width="2px" stroke-linecap="round" stroke-linejoin="round" fill="none"
          d="M10.393,15.914 L15.955,10.557 C17.318,9.194 18.000,7.855 18.000,6.539 C18.000,5.230 17.622,4.206 16.866,3.468 C16.110,2.730 15.065,2.361 13.732,2.361 C13.363,2.361 12.987,2.425 12.603,2.553 C12.219,2.681 11.862,2.854 11.531,3.071 C11.201,3.288 10.917,3.492 10.678,3.682 C10.440,3.873 10.214,4.075 10.000,4.290 C9.786,4.075 9.559,3.873 9.321,3.682 C9.083,3.492 8.799,3.288 8.469,3.071 C8.138,2.854 7.781,2.681 7.397,2.553 C7.013,2.425 6.637,2.361 6.268,2.361 C4.935,2.361 3.890,2.730 3.134,3.468 C2.378,4.206 2.000,5.230 2.000,6.539 C2.000,6.938 2.070,7.349 2.210,7.772 C2.350,8.194 2.509,8.554 2.688,8.852 C2.866,9.150 3.069,9.440 3.295,9.722 C3.521,10.005 3.686,10.200 3.790,10.307 C3.894,10.414 3.976,10.492 4.036,10.539 L9.607,15.914 C9.714,16.021 9.845,16.075 10.000,16.075 C10.155,16.075 10.286,16.021 10.393,15.914 L10.393,15.914 Z"/>
</svg>