<svg
        xmlns="http://www.w3.org/2000/svg"
        xmlns:xlink="http://www.w3.org/1999/xlink"
        width="9px" height="17px">
    <path fill-rule="evenodd"  fill="rgb(70, 89, 147)"
          d="M7.942,16.031 L7.933,16.031 C7.383,16.031 6.937,15.585 6.937,15.036 L6.937,1.058 C6.937,0.508 7.383,0.062 7.933,0.062 L7.942,0.062 C8.492,0.062 8.937,0.508 8.937,1.058 L8.937,15.036 C8.937,15.585 8.492,16.031 7.942,16.031 ZM1.942,16.031 L1.933,16.031 C1.383,16.031 0.937,15.585 0.937,15.036 L0.937,1.058 C0.937,0.508 1.383,0.062 1.933,0.062 L1.942,0.062 C2.492,0.062 2.937,0.508 2.937,1.058 L2.937,15.036 C2.937,15.585 2.492,16.031 1.942,16.031 Z"/>
</svg>