<svg
        xmlns="http://www.w3.org/2000/svg"
        xmlns:xlink="http://www.w3.org/1999/xlink"
        width="13px" height="17px">
    <path fill-rule="evenodd"  fill="rgb(70, 89, 147)"
          d="M12.863,8.060 C12.875,8.329 12.785,8.600 12.580,8.806 L2.687,15.698 C2.680,15.706 2.670,15.708 2.663,15.715 C2.481,15.907 2.228,16.031 1.942,16.031 L1.933,16.031 C1.383,16.031 0.937,15.586 0.937,15.036 L0.937,1.058 C0.937,0.508 1.383,0.062 1.933,0.062 L1.942,0.062 C2.219,0.062 2.469,0.177 2.649,0.359 C2.663,0.372 2.681,0.376 2.694,0.389 L12.586,7.282 C12.800,7.495 12.885,7.780 12.863,8.060 ZM2.937,13.135 L10.248,8.041 L2.937,2.947 L2.937,13.135 Z"/>
</svg>