<svg
        xmlns="http://www.w3.org/2000/svg"
        xmlns:xlink="http://www.w3.org/1999/xlink"
        width="9px" height="15px">
    <path fill-rule="evenodd"  fill="rgb(70, 89, 147)"
          d="M6.381,11.719 C6.111,11.725 5.882,11.686 5.694,11.601 C5.506,11.517 5.367,11.401 5.277,11.252 C5.187,11.103 5.124,10.955 5.087,10.809 C5.051,10.663 5.033,10.506 5.033,10.337 L5.033,5.972 L7.847,5.972 L7.847,3.849 L5.041,3.849 L5.041,0.276 L2.985,0.276 C2.962,0.276 2.941,0.286 2.922,0.305 C2.902,0.325 2.889,0.349 2.884,0.377 C2.856,0.630 2.813,0.878 2.757,1.123 C2.701,1.367 2.606,1.645 2.471,1.957 C2.336,2.269 2.173,2.555 1.982,2.816 C1.791,3.078 1.536,3.330 1.215,3.575 C0.895,3.819 0.533,4.015 0.128,4.160 L0.128,5.972 L1.544,5.972 L1.544,10.556 C1.544,10.882 1.590,11.214 1.683,11.551 C1.776,11.888 1.932,12.225 2.151,12.562 C2.370,12.899 2.636,13.197 2.951,13.455 C3.266,13.714 3.666,13.921 4.152,14.079 C4.638,14.236 5.173,14.309 5.757,14.298 C6.257,14.292 6.754,14.202 7.249,14.028 C7.743,13.854 8.055,13.669 8.184,13.472 L7.510,11.475 C7.195,11.627 6.819,11.708 6.381,11.719 L6.381,11.719 Z"/>
</svg>