<svg
        xmlns="http://www.w3.org/2000/svg"
        xmlns:xlink="http://www.w3.org/1999/xlink"
        width="8px" height="9px">
    <path fill-rule="evenodd"  fill="rgb(70, 89, 147)"
          d="M5.772,4.484 L7.682,6.406 C8.068,6.795 8.068,7.425 7.682,7.814 C7.295,8.203 6.669,8.203 6.282,7.814 L4.372,5.892 L2.472,7.805 C2.085,8.194 1.459,8.194 1.072,7.805 C0.686,7.416 0.686,6.786 1.072,6.397 L2.973,4.484 L1.079,2.578 C0.693,2.189 0.693,1.559 1.079,1.170 C1.465,0.782 2.092,0.782 2.478,1.170 L4.372,3.076 L6.276,1.161 C6.662,0.772 7.289,0.772 7.675,1.161 C8.061,1.550 8.061,2.180 7.675,2.569 L5.772,4.484 Z"/>
</svg>