<svg
        xmlns="http://www.w3.org/2000/svg"
        xmlns:xlink="http://www.w3.org/1999/xlink"
        width="18px" height="18px">
    <path fill-rule="evenodd"  fill="rgb(70, 89, 147)"
          d="M18.000,9.000 C18.000,12.236 16.278,15.050 13.714,16.635 C13.602,16.749 13.461,16.825 13.307,16.876 C13.213,16.927 13.127,16.990 13.031,17.038 L13.031,16.931 C13.020,16.932 13.011,16.937 13.000,16.937 C12.448,16.937 12.000,16.490 12.000,15.937 C12.000,15.385 12.448,14.937 13.000,14.937 C13.011,14.937 13.020,14.943 13.031,14.944 L13.031,14.708 C14.822,13.440 16.000,11.361 16.000,9.000 C16.000,6.639 14.822,4.560 13.031,3.292 L13.031,2.968 C12.978,2.977 12.930,3.000 12.875,3.000 C12.323,3.000 11.875,2.552 11.875,2.000 C11.875,1.448 12.323,1.000 12.875,1.000 C12.930,1.000 12.978,1.023 13.031,1.032 L13.031,0.962 C13.094,0.993 13.149,1.035 13.211,1.068 C13.324,1.109 13.424,1.171 13.514,1.247 C16.188,2.807 18.000,5.681 18.000,9.000 Z"/>
</svg>


