<svg
        xmlns="http://www.w3.org/2000/svg"
        xmlns:xlink="http://www.w3.org/1999/xlink"
        width="12px" height="16px">
    <path fill-rule="evenodd"  fill="rgb(70, 89, 147)"
          d="M11.969,1.003 L11.969,14.973 C11.969,14.976 11.967,14.978 11.967,14.980 C11.974,15.244 11.882,15.509 11.681,15.710 C11.292,16.099 10.662,16.099 10.273,15.710 L4.727,11.991 L1.983,11.991 C1.566,11.991 1.211,11.734 1.063,11.371 C1.009,11.249 0.978,11.115 0.978,10.973 L0.978,4.983 C0.978,4.433 1.423,3.987 1.973,3.987 C1.996,3.987 2.015,3.998 2.037,4.000 L4.736,4.000 L10.256,0.298 C10.437,0.108 10.690,-0.013 10.973,-0.013 C11.391,-0.013 11.746,0.246 11.893,0.610 C11.946,0.736 11.970,0.869 11.969,1.003 ZM5.618,5.760 C5.545,5.818 5.474,5.877 5.387,5.914 C5.253,5.971 5.111,5.995 4.968,5.991 L2.969,5.991 L2.969,10.000 L5.004,10.000 C5.284,10.000 5.534,10.116 5.715,10.302 L9.977,13.160 L9.977,2.837 L5.701,5.705 C5.677,5.730 5.644,5.739 5.618,5.760 Z"/>
</svg>