<svg
        xmlns="http://www.w3.org/2000/svg"
        xmlns:xlink="http://www.w3.org/1999/xlink"
        width="15px" height="15px">
    <path fill-rule="evenodd" fill="rgb(70, 89, 147)"
          d="M12.898,12.450 C12.788,12.556 12.658,12.609 12.506,12.609 L2.758,12.609 C2.600,12.609 2.468,12.556 2.362,12.450 C2.255,12.343 2.202,12.211 2.202,12.053 L2.202,6.144 L3.488,6.144 C3.366,6.527 3.305,6.925 3.305,7.339 C3.305,8.506 3.731,9.501 4.582,10.325 C5.433,11.149 6.457,11.561 7.655,11.561 C8.445,11.561 9.174,11.372 9.843,10.995 C10.512,10.618 11.041,10.106 11.430,9.459 C11.819,8.811 12.013,8.105 12.013,7.339 C12.013,6.925 11.952,6.527 11.831,6.144 L13.062,6.144 L13.062,12.053 C13.062,12.211 13.007,12.343 12.898,12.450 ZM7.655,9.919 C6.883,9.919 6.222,9.653 5.671,9.121 C5.121,8.590 4.846,7.947 4.846,7.193 C4.846,6.439 5.121,5.796 5.671,5.264 C6.222,4.733 6.883,4.466 7.655,4.466 C8.433,4.466 9.097,4.733 9.647,5.264 C10.197,5.796 10.472,6.439 10.472,7.193 C10.472,7.947 10.197,8.590 9.647,9.121 C9.097,9.653 8.433,9.919 7.655,9.919 L7.655,9.919 ZM12.880,4.357 C12.758,4.479 12.609,4.539 12.433,4.539 L10.846,4.539 C10.670,4.539 10.521,4.479 10.399,4.357 C10.278,4.236 10.217,4.087 10.217,3.910 L10.217,2.406 C10.217,2.236 10.278,2.088 10.399,1.964 C10.521,1.839 10.670,1.777 10.846,1.777 L12.433,1.777 C12.609,1.777 12.758,1.839 12.880,1.964 C13.001,2.088 13.062,2.236 13.062,2.406 L13.062,3.910 C13.062,4.087 13.001,4.236 12.880,4.357 ZM14.120,0.746 C13.767,0.394 13.345,0.217 12.852,0.217 L2.439,0.217 C1.947,0.217 1.524,0.394 1.172,0.746 C0.819,1.099 0.643,1.521 0.643,2.014 L0.643,12.427 C0.643,12.919 0.819,13.342 1.172,13.694 C1.524,14.047 1.947,14.223 2.439,14.223 L12.852,14.223 C13.345,14.223 13.767,14.047 14.120,13.694 C14.472,13.342 14.648,12.919 14.648,12.427 L14.648,2.014 C14.648,1.521 14.472,1.099 14.120,0.746 Z"/>
</svg>